# xmcd
#
# Track frame offsets:
#	150
#	15900
#	31335
#	46980
#	65462
#	80738
#	96896
#	111871
#	127868
#	143393
#	158260
#	176389
#	193869
#	208992
#
# Disc length: 2978 seconds
#
# Revision: 0
# Processed by: cddbd v1.5.2PL0 Copyright (c) Steve Scherf et al.
# Submitted via: dBpowerAMP V4.0
#
DISCID=ad0ba00e
DTITLE=BalançoDoTchê - O Vanerão é Brasileiro
DYEAR=2008
DGENRE=Country
TTITLE0=Chegou o Balanço
TTITLE1=O Vaneirão é Brasileiro
TTITLE2=Ex-Amor
TTITLE3=JáSeFoi
TTITLE4=FestaDoBeijo
TTITLE5=Aqui é SeuLugar
TTITLE6=MeDeixeAssim
TTITLE7=LongeDeVocê
TTITLE8=A MalaDaVizinha
TTITLE9=SouChineiro
TTITLE10=MelodiaDoPovo
TTITLE11=É Amar
TTITLE12=A CorDaBandeira
TTITLE13=ElaNãoMeDeu
EXTD=
EXTT0=
EXTT1=
EXTT2=
EXTT3=
EXTT4=
EXTT5=
EXTT6=
EXTT7=
EXTT8=
EXTT9=
EXTT10=
EXTT11=
EXTT12=
EXTT13=
PLAYORDER=
